<?xml version="1.0" encoding="UTF-8" standalone="no"?>
<!DOCTYPE svg PUBLIC "-//W3C//DTD SVG 1.1//EN" "http://www.w3.org/Graphics/SVG/1.1/DTD/svg11.dtd">
<svg width="100%" height="100%" viewBox="0 0 654 150" version="1.1" xmlns="http://www.w3.org/2000/svg" xmlns:xlink="http://www.w3.org/1999/xlink" xml:space="preserve" xmlns:serif="http://www.serif.com/" style="fill-rule:evenodd;clip-rule:evenodd;stroke-linejoin:round;stroke-miterlimit:2;">
    <path d="M25.174,0L0,0L0,147.663L91.324,147.663L91.324,126.097L25.174,126.097L25.174,0Z" style="fill:rgb(240,240,240);fill-rule:nonzero;"/>
    <rect x="108.485" y="67.222" width="24.393" height="80.434" style="fill:rgb(240,240,240);fill-rule:nonzero;"/>
    <path d="M204.685,144.742L173.659,42.932L149.267,42.932L181.855,147.658L227.514,147.658L260.103,42.932L235.514,42.932L204.685,144.742Z" style="fill:rgb(240,240,240);fill-rule:nonzero;"/>
    <path d="M320.616,40.612C289,40.612 268.902,63.152 268.902,95.208C268.902,127.074 288.415,150 320.616,150C345.199,150 362.958,139.119 369.592,116.774L344.788,116.774C341.084,126.878 334.248,132.912 320.784,132.912C305.954,132.912 295.616,122.613 293.665,102.412L371.328,102.412C371.699,99.837 371.893,97.239 371.907,94.637C371.913,61.982 351.619,40.612 320.616,40.612ZM293.856,85.491C296.397,66.65 306.348,57.712 320.616,57.712C335.637,57.712 345.784,68.783 346.959,85.491L293.856,85.491Z" style="fill:rgb(240,240,240);fill-rule:nonzero;"/>
</svg>
